<svg width="48" height="48" viewBox="0 0 48 48" fill="none" xmlns="http://www.w3.org/2000/svg">
<g opacity="0.25">
<path d="M31.4246 33.5461L14.4541 16.5755C13.8742 15.9957 13.8742 15.034 14.4541 14.4542C15.0339 13.8744 15.9956 13.8744 16.5754 14.4542L33.5459 31.4248C34.1258 32.0046 34.1258 32.9663 33.5459 33.5461C32.9661 34.1259 32.0044 34.1259 31.4246 33.5461Z" fill="#121722"/>
<path d="M14.4541 33.5461C13.8742 32.9663 13.8742 32.0046 14.4541 31.4248L31.4246 14.4542C32.0045 13.8744 32.9661 13.8744 33.5459 14.4542C34.1258 15.034 34.1258 15.9957 33.5459 16.5755L16.5754 33.5461C15.9956 34.1259 15.0339 34.1259 14.4541 33.5461Z" fill="#121722"/>
</g>
</svg>
