<svg width="40" height="40" viewBox="0 0 40 40" fill="none" xmlns="http://www.w3.org/2000/svg">
<rect width="40" height="40" rx="20" fill="#F2F4F7"/>
<path d="M24.7735 16.2877L16.2883 24.773C15.9983 25.0629 15.5175 25.0629 15.2276 24.773C14.9377 24.4831 14.9377 24.0023 15.2276 23.7123L23.7129 15.2271C24.0028 14.9371 24.4836 14.9371 24.7735 15.2271C25.0634 15.517 25.0634 15.9978 24.7735 16.2877Z" fill="#82858C"/>
<path d="M24.7735 24.7729C24.4836 25.0628 24.0028 25.0628 23.7129 24.7729L15.2276 16.2877C14.9377 15.9977 14.9377 15.5169 15.2276 15.227C15.5175 14.9371 15.9983 14.9371 16.2883 15.227L24.7735 23.7123C25.0635 24.0022 25.0635 24.483 24.7735 24.7729Z" fill="#82858C"/>
</svg>
