<svg width="64" height="64" viewBox="0 0 64 64" fill="none" xmlns="http://www.w3.org/2000/svg">
<path d="M32.0019 27.4136C29.2819 27.4136 26.562 26.9336 23.9753 26.0001C22.9353 25.6268 22.402 24.4801 22.7753 23.4401C23.1753 22.4001 24.322 21.8668 25.362 22.2401C29.6552 23.7868 34.3752 23.7868 38.6685 22.2401C39.7085 21.8668 40.8552 22.4001 41.2285 23.4401C41.6019 24.4801 41.0685 25.6268 40.0285 26.0001C37.4419 26.9336 34.7219 27.4136 32.0019 27.4136Z" fill="#404EED"/>
<path d="M50.8535 60.6668C49.4935 60.6668 48.0002 60.2668 46.5602 59.4402L33.5468 52.2135C32.7735 51.7868 31.2535 51.7868 30.4802 52.2135L17.4668 59.4402C14.8268 60.9068 12.1335 61.0668 10.0802 59.8402C8.02685 58.6402 6.85352 56.2135 6.85352 53.2002V15.6268C6.85352 8.8535 12.3735 3.3335 19.1468 3.3335H44.8802C51.6535 3.3335 57.1735 8.8535 57.1735 15.6268V53.2002C57.1735 56.2135 56.0002 58.6402 53.9468 59.8402C53.0135 60.4002 51.9468 60.6668 50.8535 60.6668ZM32.0002 47.8935C33.2535 47.8935 34.4802 48.1602 35.4668 48.7202L48.4802 55.9468C49.8402 56.7202 51.0935 56.8802 51.8935 56.4002C52.6935 55.9202 53.1468 54.7735 53.1468 53.2002V15.6268C53.1468 11.0668 49.4135 7.3335 44.8535 7.3335H19.1468C14.5868 7.3335 10.8535 11.0668 10.8535 15.6268V53.2002C10.8535 54.7735 11.3068 55.9468 12.1068 56.4002C12.9068 56.8535 14.1335 56.7202 15.5202 55.9468L28.5335 48.7202C29.5202 48.1602 30.7468 47.8935 32.0002 47.8935Z" fill="#404EED"/>
<path d="M50.8535 60.6668C49.4935 60.6668 48.0002 60.2668 46.5602 59.4402L33.5468 52.2135C32.7735 51.7868 31.2535 51.7868 30.4802 52.2135L17.4668 59.4402C14.8268 60.9068 12.1335 61.0668 10.0802 59.8402C8.02685 58.6402 6.85352 56.2135 6.85352 53.2002V15.6268C6.85352 8.8535 12.3735 3.3335 19.1468 3.3335H44.8802C51.6535 3.3335 57.1735 8.8535 57.1735 15.6268V53.2002C57.1735 56.2135 56.0002 58.6402 53.9468 59.8402C53.0135 60.4002 51.9468 60.6668 50.8535 60.6668ZM32.0002 47.8935C33.2535 47.8935 34.4802 48.1602 35.4668 48.7202L48.4802 55.9468C49.8402 56.7202 51.0935 56.8802 51.8935 56.4002C52.6935 55.9202 53.1468 54.7735 53.1468 53.2002V15.6268C53.1468 11.0668 49.4135 7.3335 44.8535 7.3335H19.1468C14.5868 7.3335 10.8535 11.0668 10.8535 15.6268V53.2002C10.8535 54.7735 11.3068 55.9468 12.1068 56.4002C12.9068 56.8535 14.1335 56.7202 15.5202 55.9468L28.5335 48.7202C29.5202 48.1602 30.7468 47.8935 32.0002 47.8935Z" fill="#404EED"/>
</svg>
