<svg width="64" height="64" viewBox="0 0 64 64" fill="none" xmlns="http://www.w3.org/2000/svg">
<path d="M31.9995 60.6668C30.3995 60.6668 28.8261 60.2934 27.5461 59.5734L14.9327 52.2934C9.70604 48.7734 9.35938 48.1334 9.35938 42.6134V29.3868C9.35938 23.8667 9.70604 23.2267 14.826 19.7867L27.5728 12.4267C30.1061 10.96 33.9195 10.96 36.4528 12.4267L49.0661 19.7067C54.2928 23.2267 54.6395 23.8667 54.6395 29.3868V42.6134C54.6395 48.1334 54.2928 48.7734 49.1728 52.2134L36.4261 59.5734C35.1728 60.3201 33.5728 60.6668 31.9995 60.6668ZM31.9995 15.3333C31.0928 15.3333 30.1861 15.52 29.5461 15.8933L16.9327 23.1733C13.3594 25.6 13.3594 25.6 13.3594 29.3868V42.6134C13.3594 46.4001 13.3594 46.4001 17.066 48.9068L29.5728 56.1068C30.8528 56.8534 33.1728 56.8534 34.4528 56.1068L47.0661 48.8268C50.6395 46.4001 50.6395 46.4001 50.6395 42.6134V29.3868C50.6395 25.6 50.6395 25.6 46.9328 23.0933L34.4261 15.8933C33.8128 15.52 32.9061 15.3333 31.9995 15.3333Z" fill="#404EED"/>
<path d="M46.6673 22.3468C45.574 22.3468 44.6673 21.4402 44.6673 20.3468V13.3335C44.6673 9.12016 42.8806 7.3335 38.6673 7.3335H25.334C21.1207 7.3335 19.334 9.12016 19.334 13.3335V20.1602C19.334 21.2535 18.4273 22.1602 17.334 22.1602C16.2407 22.1602 15.334 21.2802 15.334 20.1602V13.3335C15.334 6.88016 18.8807 3.3335 25.334 3.3335H38.6673C45.1206 3.3335 48.6673 6.88016 48.6673 13.3335V20.3468C48.6673 21.4402 47.7607 22.3468 46.6673 22.3468Z" fill="#404EED"/>
<path d="M36.3478 47.0136C35.7878 47.0136 35.2012 46.9069 34.6145 46.6669L32.0012 45.6536L29.3878 46.6936C27.9745 47.2536 26.5346 47.1203 25.4679 46.3469C24.4013 45.5736 23.8413 44.2403 23.9213 42.7203L24.0813 39.9203L22.2946 37.7603C21.3346 36.5603 21.0146 35.1736 21.4413 33.8936C21.8413 32.6403 22.9346 31.6803 24.4013 31.3069L27.1212 30.6136L28.6412 28.2403C30.2678 25.6803 33.7612 25.6803 35.3878 28.2403L36.9078 30.6136L39.6278 31.3069C41.0945 31.6803 42.1878 32.6403 42.5878 33.8936C42.9878 35.1469 42.6678 36.5603 41.7078 37.7336L39.9212 39.8936L40.0812 42.6936C40.1612 44.2136 39.6012 45.5203 38.5345 46.3203C37.8945 46.7736 37.1478 47.0136 36.3478 47.0136ZM25.3879 35.2003L27.1745 37.3603C27.7878 38.0803 28.1345 39.2269 28.0812 40.1603L27.9212 42.9603L30.5345 41.9203C31.4145 41.5736 32.5878 41.5736 33.4678 41.9203L36.0812 42.9603L35.9212 40.1603C35.8678 39.2269 36.2145 38.1069 36.8278 37.3603L38.6145 35.2003L35.8945 34.5069C34.9878 34.2669 34.0278 33.5736 33.5212 32.8003L32.0278 30.4536L30.5078 32.8003C30.0012 33.6003 29.0412 34.2936 28.1345 34.5336L25.3879 35.2003Z" fill="#404EED"/>
</svg>
