<svg width="64" height="64" viewBox="0 0 64 64" fill="none" xmlns="http://www.w3.org/2000/svg">
<path d="M58.6663 24.667H5.33301C4.23967 24.667 3.33301 23.7603 3.33301 22.667C3.33301 21.5737 4.23967 20.667 5.33301 20.667H58.6663C59.7597 20.667 60.6663 21.5737 60.6663 22.667C60.6663 23.7603 59.7597 24.667 58.6663 24.667Z" fill="#27C26F"/>
<path d="M21.3333 46H16C14.9067 46 14 45.0933 14 44C14 42.9067 14.9067 42 16 42H21.3333C22.4267 42 23.3333 42.9067 23.3333 44C23.3333 45.0933 22.4267 46 21.3333 46Z" fill="#27C26F"/>
<path d="M38.6667 46H28C26.9067 46 26 45.0933 26 44C26 42.9067 26.9067 42 28 42H38.6667C39.76 42 40.6667 42.9067 40.6667 44C40.6667 45.0933 39.76 46 38.6667 46Z" fill="#27C26F"/>
<path d="M46.8263 56.6663H17.173C6.55967 56.6663 3.33301 53.4663 3.33301 42.9597V21.0397C3.33301 10.533 6.55967 7.33301 17.173 7.33301H46.7997C57.413 7.33301 60.6397 10.533 60.6397 21.0397V42.933C60.6663 53.4663 57.4397 56.6663 46.8263 56.6663ZM17.173 11.333C8.79967 11.333 7.33301 12.773 7.33301 21.0397V42.933C7.33301 51.1997 8.79967 52.6397 17.173 52.6397H46.7997C55.173 52.6397 56.6397 51.1997 56.6397 42.933V21.0397C56.6397 12.773 55.173 11.333 46.7997 11.333H17.173Z" fill="#27C26F"/>
</svg>
