<svg width="64" height="64" viewBox="0 0 64 64" fill="none" xmlns="http://www.w3.org/2000/svg">
<path d="M19.8941 51.5728H14.7739C6.93393 51.0128 3.41406 44.9861 3.41406 39.6261C3.41406 34.2661 6.93396 28.2128 14.6406 27.6794C15.734 27.5728 16.6939 28.4261 16.7739 29.5461C16.8539 30.6394 16.0274 31.5994 14.9074 31.6794C9.73406 32.0528 7.41406 35.9461 7.41406 39.6528C7.41406 43.3594 9.73406 47.2528 14.9074 47.6261H19.8941C20.9874 47.6261 21.8941 48.5328 21.8941 49.6261C21.8941 50.7194 20.9874 51.5728 19.8941 51.5728Z" fill="#27C26F"/>
<path d="M44.4529 51.5735C44.3996 51.5735 44.3729 51.5735 44.3196 51.5735C43.2262 51.5735 42.2129 50.6668 42.2129 49.5735C42.2129 48.4268 43.0662 47.5735 44.1862 47.5735C47.4662 47.5735 50.3996 46.4268 52.6929 44.3735C56.8529 40.7468 57.1196 35.5202 55.9996 31.8402C54.8796 28.1868 51.7596 24.0002 46.3196 23.3335C45.4396 23.2268 44.7462 22.5602 44.5862 21.6802C43.5196 15.2802 40.0796 10.8535 34.8529 9.25349C29.4662 7.57349 23.1729 9.22682 19.2528 13.3335C15.4395 17.3068 14.5595 22.8802 16.7729 29.0135C17.1462 30.0535 16.613 31.2002 15.573 31.5735C14.533 31.9468 13.3863 31.4135 13.013 30.3735C10.3196 22.8535 11.5463 15.6535 16.373 10.5868C21.3063 5.41349 29.2262 3.36015 36.0262 5.44015C42.2662 7.36015 46.6662 12.5068 48.2662 19.6535C53.7062 20.8802 58.0796 25.0135 59.8129 30.7202C61.7062 36.9335 59.9996 43.3335 55.3329 47.3868C52.3729 50.0535 48.5062 51.5735 44.4529 51.5735Z" fill="#27C26F"/>
<path d="M31.9998 59.4142C26.6398 59.4142 21.6266 56.5609 18.8799 51.9476C18.5866 51.4942 18.2932 50.9609 18.0532 50.3742C17.1466 48.4809 16.6665 46.3209 16.6665 44.0809C16.6665 35.6276 23.5465 28.7476 31.9998 28.7476C40.4532 28.7476 47.3332 35.6276 47.3332 44.0809C47.3332 46.3476 46.8532 48.4809 45.8932 50.4542C45.6798 50.9609 45.3865 51.4942 45.0665 52.0009C42.3732 56.5609 37.3598 59.4142 31.9998 59.4142ZM31.9998 32.7476C25.7598 32.7476 20.6665 37.8409 20.6665 44.0809C20.6665 45.7342 21.0132 47.2809 21.6798 48.6942C21.8932 49.1476 22.0798 49.5209 22.2931 49.8676C24.3198 53.3076 28.0265 55.4142 31.9732 55.4142C35.9198 55.4142 39.6265 53.3076 41.6265 49.9209C41.8665 49.5209 42.0798 49.1476 42.2398 48.7742C42.9598 47.3076 43.3065 45.7609 43.3065 44.1076C43.3332 37.8409 38.2398 32.7476 31.9998 32.7476Z" fill="#27C26F"/>
<path d="M30.4796 48.7194C29.9729 48.7194 29.4662 48.5327 29.0662 48.1327L26.4262 45.4927C25.6529 44.7194 25.6529 43.4394 26.4262 42.6661C27.1996 41.8927 28.4796 41.8927 29.2529 42.6661L30.5329 43.9461L34.7996 39.9994C35.6262 39.2527 36.8796 39.3061 37.6262 40.1061C38.3729 40.9061 38.3196 42.1861 37.5196 42.9327L31.8396 48.1861C31.4396 48.5327 30.9596 48.7194 30.4796 48.7194Z" fill="#27C26F"/>
</svg>
