<svg width="64" height="64" viewBox="0 0 64 64" fill="none" xmlns="http://www.w3.org/2000/svg">
<path d="M42.6673 44.6668H21.334C20.2407 44.6668 19.334 43.7602 19.334 42.6668V21.3335C19.334 20.2402 20.2407 19.3335 21.334 19.3335H42.6673C43.7607 19.3335 44.6673 20.2402 44.6673 21.3335V42.6668C44.6673 43.7602 43.7607 44.6668 42.6673 44.6668ZM23.334 40.6668H40.6673V23.3335H23.334V40.6668Z" fill="#404EED"/>
<path d="M13.334 60.6665C7.81398 60.6665 3.33398 56.1865 3.33398 50.6665C3.33398 45.1465 7.81398 40.6665 13.334 40.6665H21.334C22.4273 40.6665 23.334 41.5732 23.334 42.6665V50.6665C23.334 56.1865 18.854 60.6665 13.334 60.6665ZM13.334 44.6665C10.0273 44.6665 7.33398 47.3598 7.33398 50.6665C7.33398 53.9732 10.0273 56.6665 13.334 56.6665C16.6407 56.6665 19.334 53.9732 19.334 50.6665V44.6665H13.334Z" fill="#404EED"/>
<path d="M21.334 23.3335H13.334C7.81398 23.3335 3.33398 18.8535 3.33398 13.3335C3.33398 7.8135 7.81398 3.3335 13.334 3.3335C18.854 3.3335 23.334 7.8135 23.334 13.3335V21.3335C23.334 22.4268 22.4273 23.3335 21.334 23.3335ZM13.334 7.3335C10.0273 7.3335 7.33398 10.0268 7.33398 13.3335C7.33398 16.6402 10.0273 19.3335 13.334 19.3335H19.334V13.3335C19.334 10.0268 16.6407 7.3335 13.334 7.3335Z" fill="#404EED"/>
<path d="M50.666 23.3335H42.666C41.5727 23.3335 40.666 22.4268 40.666 21.3335V13.3335C40.666 7.8135 45.146 3.3335 50.666 3.3335C56.186 3.3335 60.666 7.8135 60.666 13.3335C60.666 18.8535 56.186 23.3335 50.666 23.3335ZM44.666 19.3335H50.666C53.9727 19.3335 56.666 16.6402 56.666 13.3335C56.666 10.0268 53.9727 7.3335 50.666 7.3335C47.3593 7.3335 44.666 10.0268 44.666 13.3335V19.3335Z" fill="#404EED"/>
<path d="M50.666 60.6665C45.146 60.6665 40.666 56.1865 40.666 50.6665V42.6665C40.666 41.5732 41.5727 40.6665 42.666 40.6665H50.666C56.186 40.6665 60.666 45.1465 60.666 50.6665C60.666 56.1865 56.186 60.6665 50.666 60.6665ZM44.666 44.6665V50.6665C44.666 53.9732 47.3593 56.6665 50.666 56.6665C53.9727 56.6665 56.666 53.9732 56.666 50.6665C56.666 47.3598 53.9727 44.6665 50.666 44.6665H44.666Z" fill="#404EED"/>
</svg>
