<svg width="64" height="64" viewBox="0 0 64 64" fill="none" xmlns="http://www.w3.org/2000/svg">
<path d="M32.4014 51.6C31.308 51.6 30.4014 50.6933 30.4014 49.6V44C30.4014 42.9067 31.308 42 32.4014 42C33.4947 42 34.4014 42.9067 34.4014 44V49.6C34.4014 50.6933 33.4947 51.6 32.4014 51.6Z" fill="#FF7847"/>
<path d="M47.7341 60.667H17.0674V56.0003C17.0674 51.947 20.3474 48.667 24.4007 48.667H40.4007C44.4541 48.667 47.7341 51.947 47.7341 56.0003V60.667ZM21.0674 56.667H43.7341V56.0003C43.7341 54.1603 42.2407 52.667 40.4007 52.667H24.4007C22.5607 52.667 21.0674 54.1603 21.0674 56.0003V56.667Z" fill="#FF7847"/>
<path d="M48.4014 60.667H16.4014C15.308 60.667 14.4014 59.7603 14.4014 58.667C14.4014 57.5737 15.308 56.667 16.4014 56.667H48.4014C49.4947 56.667 50.4014 57.5737 50.4014 58.667C50.4014 59.7603 49.4947 60.667 48.4014 60.667Z" fill="#FF7847"/>
<path d="M49.1488 33.1738C48.5888 33.1738 48.0288 32.9338 47.6288 32.4804C47.1222 31.8938 46.9888 31.0671 47.3088 30.3738C48.2155 28.2938 48.6688 26.0803 48.6688 23.7603V15.7603C48.6688 14.827 48.5088 13.9203 48.1888 12.9603C48.1622 12.8803 48.1355 12.7737 48.1088 12.667C48.0288 12.267 48.0022 11.867 48.0022 11.4937C48.0022 10.4003 48.9088 9.49365 50.0022 9.49365H51.6022C56.3755 9.49365 60.2688 13.4937 60.2688 18.427C60.2688 22.507 58.5888 26.5337 55.6822 29.4404C55.6288 29.4938 55.4688 29.6271 55.4422 29.6538C53.8688 30.9604 52.0822 32.4271 49.6822 33.0938C49.4955 33.1471 49.3355 33.1738 49.1488 33.1738ZM52.4822 13.5737C52.6155 14.2937 52.6688 15.0403 52.6688 15.7603V23.7603C52.6688 24.8537 52.5888 25.8937 52.4288 26.9604C52.5888 26.8271 52.7222 26.7204 52.8822 26.587C55.0155 24.4537 56.2688 21.467 56.2688 18.427C56.2688 16.027 54.6422 14.0003 52.4822 13.5737Z" fill="#FF7847"/>
<path d="M14.881 33.0669C14.6677 33.0669 14.481 33.0402 14.2677 32.9602C12.081 32.2669 10.0277 30.9869 8.32104 29.2802C5.25437 25.8935 3.73438 22.1869 3.73438 18.2669C3.73438 13.4135 7.54771 9.60019 12.401 9.60019H14.1344C14.801 9.60019 15.441 9.94686 15.8144 10.5069C16.1877 11.0669 16.241 11.7869 15.9744 12.4002C15.5477 13.3602 15.3344 14.4535 15.3344 15.6002V23.6002C15.3344 25.8935 15.7877 28.1335 16.721 30.2669C17.041 30.9869 16.881 31.8135 16.3744 32.4002C15.9744 32.8269 15.441 33.0669 14.881 33.0669ZM11.4677 13.6802C9.30771 14.1069 7.73437 15.9735 7.73437 18.2669C7.73437 21.1735 8.90771 23.9735 11.2277 26.5335C11.3344 26.6669 11.4677 26.7735 11.601 26.8802C11.4144 25.7869 11.3344 24.6935 11.3344 23.6002V15.6002C11.3344 14.9602 11.3877 14.3202 11.4677 13.6802Z" fill="#FF7847"/>
<path d="M31.9997 44.6663C20.613 44.6663 11.333 35.3863 11.333 23.9997V15.9997C11.333 9.01301 17.013 3.33301 23.9997 3.33301H39.9997C46.9863 3.33301 52.6663 9.01301 52.6663 15.9997V23.9997C52.6663 35.3863 43.3863 44.6663 31.9997 44.6663ZM23.9997 7.33301C19.2263 7.33301 15.333 11.2263 15.333 15.9997V23.9997C15.333 33.1997 22.7997 40.6663 31.9997 40.6663C41.1997 40.6663 48.6663 33.1997 48.6663 23.9997V15.9997C48.6663 11.2263 44.773 7.33301 39.9997 7.33301H23.9997Z" fill="#FF7847"/>
</svg>
