<svg width="64" height="64" viewBox="0 0 64 64" fill="none" xmlns="http://www.w3.org/2000/svg">
<path d="M26.6418 60.6671C26.1085 60.6671 25.6818 60.5604 25.3618 60.4271C24.2952 60.0271 22.4818 58.7204 22.4818 54.5871V37.3871H16.2418C12.6685 37.3871 11.3885 35.7071 10.9352 34.7204C10.4818 33.7071 10.0818 31.6538 12.4285 28.9604L32.6152 6.02717C35.3353 2.93384 37.5486 3.14717 38.6152 3.54717C39.6819 3.94717 41.4953 5.25384 41.4953 9.38717V26.5872H47.7353C51.3086 26.5872 52.5886 28.2671 53.0419 29.2538C53.4953 30.2671 53.8953 32.3204 51.5486 35.0138L31.3619 57.9471C29.4686 60.1071 27.8152 60.6671 26.6418 60.6671ZM37.1486 7.30717C37.0686 7.41384 36.5086 7.6805 35.6286 8.69384L15.4418 31.6271C14.6952 32.4804 14.5885 33.0138 14.5885 33.1204C14.6418 33.1471 15.1218 33.4138 16.2418 33.4138H24.4818C25.5752 33.4138 26.4818 34.3204 26.4818 35.4138V54.6138C26.4818 55.9471 26.7219 56.5338 26.8286 56.6938C26.9086 56.5871 27.4686 56.3204 28.3486 55.3071L48.5352 32.3738C49.2819 31.5204 49.3886 30.9871 49.3886 30.8804C49.3352 30.8538 48.8553 30.5871 47.7353 30.5871H39.4953C38.4019 30.5871 37.4953 29.6804 37.4953 28.5871V9.38717C37.5219 8.05384 37.2552 7.49384 37.1486 7.30717Z" fill="#1FB4FF"/>
</svg>
