<svg width="64" height="64" viewBox="0 0 64 64" fill="none" xmlns="http://www.w3.org/2000/svg">
<path d="M48.8533 33.9999H40C33.36 33.9999 30 30.2399 30 22.7998V15.1465C30 12.4265 30.32 8.53316 33.1467 6.39982C35.52 4.63982 38.9333 4.50649 43.9733 5.97316C50.5867 7.89316 56.1067 13.4132 58.0267 20.0265C59.4933 25.0398 59.36 28.4799 57.6 30.8266C55.4667 33.6799 51.5733 33.9999 48.8533 33.9999ZM38.08 8.95982C36.9867 8.95982 36.1333 9.17316 35.5733 9.59982C34.5333 10.3732 34.0267 12.1865 34.0267 15.1465V22.8265C34.0267 28.7999 36.32 30.0266 40.0267 30.0266H48.88C51.8133 30.0266 53.6267 29.5199 54.4267 28.4799C55.36 27.2533 55.28 24.7998 54.24 21.1998C52.6933 15.9465 48.16 11.3865 42.9067 9.86649C40.9333 9.25316 39.3333 8.95982 38.08 8.95982Z" fill="#404EED"/>
<path d="M29.5207 60.6663C28.1074 60.6663 26.6674 60.5596 25.2273 60.3196C14.3207 58.5596 5.44066 49.7063 3.68066 38.7996C1.414 24.773 10.454 11.5464 24.294 8.71972C25.3873 8.50638 26.4273 9.19972 26.6674 10.2664C26.8807 11.3597 26.1873 12.3997 25.1207 12.6397C13.414 15.0397 5.734 26.2397 7.68066 38.1596C9.174 47.3863 16.6673 54.8796 25.894 56.373C37.8674 58.293 49.0407 50.5863 51.4141 38.8263C51.6274 37.733 52.6941 37.0396 53.7607 37.253C54.8541 37.4663 55.5474 38.533 55.3341 39.5996C52.8007 52.053 41.9207 60.6663 29.5207 60.6663Z" fill="#404EED"/>
</svg>
