<svg width="64" height="64" viewBox="0 0 64 64" fill="none" xmlns="http://www.w3.org/2000/svg">
<path d="M31.9225 60.6668C16.1359 60.6668 3.25586 47.8135 3.25586 32.0002C3.25586 16.1868 16.1359 3.3335 31.9225 3.3335C47.7092 3.3335 60.5892 16.1868 60.5892 32.0002C60.5892 47.8135 47.7359 60.6668 31.9225 60.6668ZM31.9225 7.3335C18.3225 7.3335 7.25586 18.4002 7.25586 32.0002C7.25586 45.6002 18.3225 56.6668 31.9225 56.6668C45.5225 56.6668 56.5892 45.6002 56.5892 32.0002C56.5892 18.4002 45.5225 7.3335 31.9225 7.3335Z" fill="#404EED"/>
<path d="M32.0004 51.3331C26.267 51.3331 20.8803 48.5331 17.6003 43.8131C16.9603 42.9064 17.2003 41.6531 18.107 41.0398C19.0137 40.3998 20.267 40.6398 20.8803 41.5464C23.4137 45.1731 27.5737 47.3598 32.0004 47.3598C36.427 47.3598 40.587 45.1998 43.1204 41.5464C43.7604 40.6398 44.987 40.4264 45.8937 41.0398C46.8004 41.6798 47.0137 42.9064 46.4004 43.8131C43.1204 48.5331 37.7337 51.3331 32.0004 51.3331Z" fill="#404EED"/>
</svg>
