<svg width="140" height="28" viewBox="0 0 140 28" fill="none" xmlns="http://www.w3.org/2000/svg">
<path d="M0 0H14.0928L0 14V0Z" fill="#FF4748"/>
<path d="M14.0928 14H0V28H14.0928V14Z" fill="#FF4748"/>
<path d="M37.2051 19.6999H46.6529V17.1441H40.3255V5.03809H37.2051V19.6999Z" fill="#121722"/>
<path d="M53.0535 19.9148C56.4118 19.9148 58.5017 17.6311 58.5017 14.2448C58.5017 10.8371 56.4118 8.56049 53.0535 8.56049C49.6954 8.56049 47.6055 10.8371 47.6055 14.2448C47.6055 17.6311 49.6954 19.9148 53.0535 19.9148ZM53.0678 17.5523C51.5185 17.5523 50.7259 16.142 50.7259 14.2233C50.7259 12.3047 51.5185 10.8872 53.0678 10.8872C54.5885 10.8872 55.3813 12.3047 55.3813 14.2233C55.3813 16.142 54.5885 17.5523 53.0678 17.5523Z" fill="#121722"/>
<path d="M64.8761 24.0528C68.0399 24.0528 70.2883 22.6209 70.2883 19.8074V8.70368H67.24V10.5507H67.1247C66.7138 9.65585 65.813 8.56049 63.9609 8.56049C61.5324 8.56049 59.4785 10.4362 59.4785 14.1804C59.4785 17.8387 61.4746 19.5425 63.9682 19.5425C65.7337 19.5425 66.7211 18.662 67.1247 17.7528H67.2544V19.7645C67.2544 21.275 66.2814 21.8621 64.9482 21.8621C63.5933 21.8621 62.9087 21.275 62.6564 20.6093L59.8173 20.9887C60.1848 22.7212 61.8926 24.0528 64.8761 24.0528ZM64.9412 17.2516C63.4349 17.2516 62.6133 16.0632 62.6133 14.1661C62.6133 12.2975 63.4206 10.9874 64.9412 10.9874C66.4328 10.9874 67.2687 12.2403 67.2687 14.1661C67.2687 16.1062 66.4184 17.2516 64.9412 17.2516Z" fill="#121722"/>
<path d="M77.1238 19.9148C80.4821 19.9148 82.572 17.6311 82.572 14.2448C82.572 10.8371 80.4821 8.56049 77.1238 8.56049C73.7655 8.56049 71.6758 10.8371 71.6758 14.2448C71.6758 17.6311 73.7655 19.9148 77.1238 19.9148ZM77.1382 17.5523C75.5888 17.5523 74.7962 16.142 74.7962 14.2233C74.7962 12.3047 75.5888 10.8872 77.1382 10.8872C78.6588 10.8872 79.4516 12.3047 79.4516 14.2233C79.4516 16.142 78.6588 17.5523 77.1382 17.5523Z" fill="#121722"/>
<path d="M83.959 19.6996H87.029V8.70327H83.959V19.6996ZM85.5013 7.28577C86.4165 7.28577 87.166 6.59134 87.166 5.73941C87.166 4.89462 86.4165 4.2002 85.5013 4.2002C84.5932 4.2002 83.8438 4.89462 83.8438 5.73941C83.8438 6.59134 84.5932 7.28577 85.5013 7.28577Z" fill="#121722"/>
<path d="M88.8809 23.8237H91.9508V17.9389H92.0447C92.4697 18.8553 93.3993 19.879 95.1865 19.879C97.7089 19.879 99.6762 17.8959 99.6762 14.2162C99.6762 10.4362 97.6223 8.56049 95.1939 8.56049C93.3418 8.56049 92.4554 9.65585 92.0447 10.5507H91.9077V8.70368H88.8809V23.8237ZM91.886 14.2019C91.886 12.2403 92.722 10.9874 94.2139 10.9874C95.7345 10.9874 96.5414 12.2975 96.5414 14.2019C96.5414 16.1205 95.7198 17.4521 94.2139 17.4521C92.7364 17.4521 91.886 16.1634 91.886 14.2019Z" fill="#121722"/>
<path d="M110.323 11.8394C110.049 9.81341 108.406 8.56055 105.61 8.56055C102.778 8.56055 100.911 9.8635 100.918 11.9826C100.911 13.6292 101.956 14.6959 104.118 15.1254L106.035 15.5049C107.001 15.6982 107.441 16.049 107.455 16.6002C107.441 17.2517 106.727 17.717 105.653 17.717C104.558 17.717 103.83 17.2517 103.643 16.3568L100.623 16.5143C100.911 18.6191 102.713 19.9149 105.646 19.9149C108.514 19.9149 110.568 18.4616 110.575 16.2924C110.568 14.703 109.523 13.7509 107.375 13.3142L105.372 12.9133C104.342 12.6914 103.96 12.3405 103.967 11.8108C103.96 11.1521 104.709 10.7226 105.66 10.7226C106.727 10.7226 107.361 11.3025 107.512 12.0112L110.323 11.8394Z" fill="#121722"/>
<path d="M118.999 15.0174C119.006 16.4922 117.99 17.2654 116.888 17.2654C115.727 17.2654 114.978 16.4564 114.97 15.1606V8.70312H111.9V15.7047C111.908 18.2748 113.421 19.8427 115.648 19.8427C117.313 19.8427 118.509 18.9907 119.006 17.7021H119.122V19.6995H122.069V8.70312H118.999V15.0174Z" fill="#121722"/>
<path d="M123.915 19.7001H126.985V13.0994C126.985 11.8824 127.763 11.0734 128.787 11.0734C129.796 11.0734 130.473 11.7607 130.473 12.8417V19.7001H133.449V12.9849C133.449 11.8466 134.105 11.0734 135.222 11.0734C136.202 11.0734 136.937 11.6819 136.937 12.9061V19.7001H140V12.3048C140 9.92079 138.573 8.56055 136.512 8.56055C134.891 8.56055 133.629 9.38386 133.176 10.6439H133.06C132.707 9.36952 131.576 8.56055 130.055 8.56055C128.563 8.56055 127.432 9.34805 126.971 10.6439H126.841V8.70374H123.915V19.7001Z" fill="#121722"/>
<path d="M14.0918 0H28.1846L14.0918 14V0Z" fill="#FF4748"/>
<path d="M14.0918 14H28.1846L14.0918 28V14Z" fill="#FF4748"/>
<path d="M37.2051 19.6999H46.6529V17.1441H40.3255V5.03809H37.2051V19.6999Z" fill="#121722"/>
<path d="M53.0535 19.9148C56.4118 19.9148 58.5017 17.6311 58.5017 14.2448C58.5017 10.8371 56.4118 8.56049 53.0535 8.56049C49.6954 8.56049 47.6055 10.8371 47.6055 14.2448C47.6055 17.6311 49.6954 19.9148 53.0535 19.9148ZM53.0678 17.5523C51.5185 17.5523 50.7259 16.142 50.7259 14.2233C50.7259 12.3047 51.5185 10.8872 53.0678 10.8872C54.5885 10.8872 55.3813 12.3047 55.3813 14.2233C55.3813 16.142 54.5885 17.5523 53.0678 17.5523Z" fill="#121722"/>
<path d="M64.8761 24.0528C68.0399 24.0528 70.2883 22.6209 70.2883 19.8074V8.70368H67.24V10.5507H67.1247C66.7138 9.65585 65.813 8.56049 63.9609 8.56049C61.5324 8.56049 59.4785 10.4362 59.4785 14.1804C59.4785 17.8387 61.4746 19.5425 63.9682 19.5425C65.7337 19.5425 66.7211 18.662 67.1247 17.7528H67.2544V19.7645C67.2544 21.275 66.2814 21.8621 64.9482 21.8621C63.5933 21.8621 62.9087 21.275 62.6564 20.6093L59.8173 20.9887C60.1848 22.7212 61.8926 24.0528 64.8761 24.0528ZM64.9412 17.2516C63.4349 17.2516 62.6133 16.0632 62.6133 14.1661C62.6133 12.2975 63.4206 10.9874 64.9412 10.9874C66.4328 10.9874 67.2687 12.2403 67.2687 14.1661C67.2687 16.1062 66.4184 17.2516 64.9412 17.2516Z" fill="#121722"/>
<path d="M77.1238 19.9148C80.4821 19.9148 82.572 17.6311 82.572 14.2448C82.572 10.8371 80.4821 8.56049 77.1238 8.56049C73.7655 8.56049 71.6758 10.8371 71.6758 14.2448C71.6758 17.6311 73.7655 19.9148 77.1238 19.9148ZM77.1382 17.5523C75.5888 17.5523 74.7962 16.142 74.7962 14.2233C74.7962 12.3047 75.5888 10.8872 77.1382 10.8872C78.6588 10.8872 79.4516 12.3047 79.4516 14.2233C79.4516 16.142 78.6588 17.5523 77.1382 17.5523Z" fill="#121722"/>
<path d="M83.959 19.6996H87.029V8.70327H83.959V19.6996ZM85.5013 7.28577C86.4165 7.28577 87.166 6.59134 87.166 5.73941C87.166 4.89462 86.4165 4.2002 85.5013 4.2002C84.5932 4.2002 83.8438 4.89462 83.8438 5.73941C83.8438 6.59134 84.5932 7.28577 85.5013 7.28577Z" fill="#121722"/>
<path d="M88.8809 23.8237H91.9508V17.9389H92.0447C92.4697 18.8553 93.3993 19.879 95.1865 19.879C97.7089 19.879 99.6762 17.8959 99.6762 14.2162C99.6762 10.4362 97.6223 8.56049 95.1939 8.56049C93.3418 8.56049 92.4554 9.65585 92.0447 10.5507H91.9077V8.70368H88.8809V23.8237ZM91.886 14.2019C91.886 12.2403 92.722 10.9874 94.2139 10.9874C95.7345 10.9874 96.5414 12.2975 96.5414 14.2019C96.5414 16.1205 95.7198 17.4521 94.2139 17.4521C92.7364 17.4521 91.886 16.1634 91.886 14.2019Z" fill="#121722"/>
<path d="M110.323 11.8394C110.049 9.81341 108.406 8.56055 105.61 8.56055C102.778 8.56055 100.911 9.8635 100.918 11.9826C100.911 13.6292 101.956 14.6959 104.118 15.1254L106.035 15.5049C107.001 15.6982 107.441 16.049 107.455 16.6002C107.441 17.2517 106.727 17.717 105.653 17.717C104.558 17.717 103.83 17.2517 103.643 16.3568L100.623 16.5143C100.911 18.6191 102.713 19.9149 105.646 19.9149C108.514 19.9149 110.568 18.4616 110.575 16.2924C110.568 14.703 109.523 13.7509 107.375 13.3142L105.372 12.9133C104.342 12.6914 103.96 12.3405 103.967 11.8108C103.96 11.1521 104.709 10.7226 105.66 10.7226C106.727 10.7226 107.361 11.3025 107.512 12.0112L110.323 11.8394Z" fill="#121722"/>
<path d="M118.999 15.0174C119.006 16.4922 117.99 17.2654 116.888 17.2654C115.727 17.2654 114.978 16.4564 114.97 15.1606V8.70312H111.9V15.7047C111.908 18.2748 113.421 19.8427 115.648 19.8427C117.313 19.8427 118.509 18.9907 119.006 17.7021H119.122V19.6995H122.069V8.70312H118.999V15.0174Z" fill="#121722"/>
<path d="M123.915 19.7001H126.985V13.0994C126.985 11.8824 127.763 11.0734 128.787 11.0734C129.796 11.0734 130.473 11.7607 130.473 12.8417V19.7001H133.449V12.9849C133.449 11.8466 134.105 11.0734 135.222 11.0734C136.202 11.0734 136.937 11.6819 136.937 12.9061V19.7001H140V12.3048C140 9.92079 138.573 8.56055 136.512 8.56055C134.891 8.56055 133.629 9.38386 133.176 10.6439H133.06C132.707 9.36952 131.576 8.56055 130.055 8.56055C128.563 8.56055 127.432 9.34805 126.971 10.6439H126.841V8.70374H123.915V19.7001Z" fill="#121722"/>
</svg>
