<svg width="119" height="40" viewBox="0 0 119 40" fill="none" xmlns="http://www.w3.org/2000/svg">
<path d="M40 27.5941V12H43.4179V27.5941H40ZM42.9907 27.5941V24.6889H49.8051V27.5941H42.9907ZM42.9907 21.1215V18.2163H49.3138V21.1215H42.9907ZM42.9907 14.9052V12H49.6555V14.9052H42.9907Z" fill="#121722"/>
<path d="M52.6409 27.5941V12H56.0801V27.5941H52.6409ZM51.2523 14.5207V12H56.0801V14.5207H51.2523Z" fill="#121722"/>
<path d="M64.5913 28C63.5944 28 62.7114 27.8291 61.9424 27.4873C61.1876 27.1455 60.5539 26.6898 60.0412 26.1202C59.5428 25.5363 59.1583 24.8883 58.8877 24.1762C58.6313 23.4499 58.5032 22.7094 58.5032 21.9546V21.5274C58.5032 20.7441 58.6313 19.9964 58.8877 19.2844C59.1583 18.5581 59.5428 17.9101 60.0412 17.3405C60.5397 16.7708 61.1592 16.3222 61.8997 15.9947C62.6545 15.6529 63.509 15.482 64.4631 15.482C65.7163 15.482 66.7702 15.7668 67.6247 16.3364C68.4934 16.8919 69.1556 17.6253 69.6113 18.5367C70.067 19.4339 70.2949 20.4166 70.2949 21.4846V22.6382H59.9344V20.6943H68.2228L67.112 21.5915C67.112 20.8936 67.0123 20.2955 66.8129 19.7971C66.6135 19.2986 66.3145 18.9212 65.9157 18.6649C65.5312 18.3943 65.047 18.259 64.4631 18.259C63.865 18.259 63.3594 18.3943 62.9464 18.6649C62.5334 18.9355 62.2201 19.3342 62.0065 19.8611C61.7929 20.3738 61.6861 21.0076 61.6861 21.7623C61.6861 22.4602 61.7858 23.0725 61.9851 23.5995C62.1845 24.1121 62.4978 24.5109 62.9251 24.7957C63.3523 25.0806 63.9077 25.223 64.5913 25.223C65.2179 25.223 65.7306 25.1019 66.1293 24.8598C66.5281 24.6177 66.7987 24.3186 66.9411 23.9626H70.0813C69.9104 24.7459 69.5757 25.4437 69.0773 26.0561C68.5788 26.6684 67.9522 27.1455 67.1974 27.4873C66.4426 27.8291 65.5739 28 64.5913 28Z" fill="#121722"/>
<path d="M74.7198 27.5941L71.2165 15.8879H74.7412L78.0309 27.5941H74.7198ZM75.7879 27.5941V24.753H79.2271V27.5941H75.7879ZM77.0482 27.5941L79.8893 15.8879H83.1791L80.1457 27.5941H77.0482Z" fill="#121722"/>
<path d="M92.1055 27.5941V24.1335H91.5287V20.3738C91.5287 19.7757 91.3863 19.3271 91.1015 19.028C90.8166 18.729 90.3609 18.5794 89.7343 18.5794C89.421 18.5794 89.008 18.5866 88.4953 18.6008C87.9826 18.615 87.4557 18.6364 86.9145 18.6649C86.3734 18.6934 85.8821 18.7219 85.4406 18.7503V15.8665C85.7681 15.838 86.1526 15.8095 86.5941 15.781C87.0356 15.7526 87.4913 15.7312 87.9613 15.717C88.4312 15.7027 88.8727 15.6956 89.2857 15.6956C90.482 15.6956 91.486 15.8665 92.2977 16.2083C93.1237 16.5501 93.7503 17.0699 94.1776 17.7677C94.6048 18.4513 94.8184 19.3342 94.8184 20.4166V27.5941H92.1055ZM88.3672 27.8932C87.5269 27.8932 86.7864 27.7437 86.1455 27.4446C85.5189 27.1455 85.0276 26.7183 84.6716 26.1629C84.3155 25.5932 84.1375 24.9168 84.1375 24.1335C84.1375 23.279 84.3582 22.5812 84.7997 22.0401C85.2412 21.4846 85.8607 21.0788 86.6582 20.8224C87.4557 20.5518 88.3743 20.4166 89.4139 20.4166H91.9132V22.3178H89.3925C88.7944 22.3178 88.3316 22.4673 88.004 22.7664C87.6907 23.0512 87.534 23.4428 87.534 23.9413C87.534 24.4112 87.6907 24.7957 88.004 25.0948C88.3316 25.3796 88.7944 25.522 89.3925 25.522C89.777 25.522 90.1188 25.4579 90.4179 25.3298C90.7312 25.1874 90.9875 24.9524 91.1869 24.6248C91.3863 24.2973 91.5002 23.8416 91.5287 23.2577L92.3405 24.1121C92.2692 24.9239 92.0699 25.6075 91.7423 26.1629C91.429 26.7183 90.9875 27.1455 90.4179 27.4446C89.8625 27.7437 89.1789 27.8932 88.3672 27.8932Z" fill="#121722"/>
<path d="M103.037 27.7437C101.855 27.7437 100.901 27.6012 100.175 27.3164C99.4486 27.0174 98.9145 26.526 98.5728 25.8425C98.2452 25.1446 98.0814 24.2047 98.0814 23.0227V12.7263H101.264V23.1509C101.264 23.7063 101.407 24.1335 101.692 24.4326C101.991 24.7174 102.411 24.8598 102.952 24.8598H104.682V27.7437H103.037ZM96.3084 18.3872V15.8879H104.682V18.3872H96.3084Z" fill="#121722"/>
<path d="M112.301 28C111.304 28 110.421 27.8291 109.652 27.4873C108.897 27.1455 108.263 26.6898 107.751 26.1202C107.252 25.5363 106.868 24.8883 106.597 24.1762C106.341 23.4499 106.213 22.7094 106.213 21.9546V21.5274C106.213 20.7441 106.341 19.9964 106.597 19.2844C106.868 18.5581 107.252 17.9101 107.751 17.3405C108.249 16.7708 108.869 16.3222 109.609 15.9947C110.364 15.6529 111.218 15.482 112.173 15.482C113.426 15.482 114.48 15.7668 115.334 16.3364C116.203 16.8919 116.865 17.6253 117.321 18.5367C117.776 19.4339 118.004 20.4166 118.004 21.4846V22.6382H107.644V20.6943H115.932L114.821 21.5915C114.821 20.8936 114.722 20.2955 114.522 19.7971C114.323 19.2986 114.024 18.9212 113.625 18.6649C113.241 18.3943 112.756 18.259 112.173 18.259C111.574 18.259 111.069 18.3943 110.656 18.6649C110.243 18.9355 109.93 19.3342 109.716 19.8611C109.502 20.3738 109.396 21.0076 109.396 21.7623C109.396 22.4602 109.495 23.0725 109.695 23.5995C109.894 24.1121 110.207 24.5109 110.635 24.7957C111.062 25.0806 111.617 25.223 112.301 25.223C112.927 25.223 113.44 25.1019 113.839 24.8598C114.238 24.6177 114.508 24.3186 114.651 23.9626H117.791C117.62 24.7459 117.285 25.4437 116.787 26.0561C116.288 26.6684 115.662 27.1455 114.907 27.4873C114.152 27.8291 113.283 28 112.301 28Z" fill="#121722"/>
<g style="mix-blend-mode:multiply">
<rect width="24" height="24" rx="12" fill="#404EED"/>
</g>
<g style="mix-blend-mode:multiply">
<rect y="16" width="24" height="24" rx="12" fill="#1FB4FF"/>
</g>
</svg>
