<svg width="130" height="32" viewBox="0 0 130 32" fill="none" xmlns="http://www.w3.org/2000/svg">
<path d="M0 24L2.56118e-06 8L8.07303 12.4445V19.6L14.5315 23.2L20.9899 19.6V12.4445L29.063 8V24L14.5315 32L0 24Z" fill="#FFC933"/>
<path fill-rule="evenodd" clip-rule="evenodd" d="M4.03653 10.2223L0 8.00001L14.5315 0L29.063 8.00001L25.0265 10.2223V22L14.5315 28.0001L4.03652 22L4.03653 10.2223ZM24.5892 10.463L20.9899 12.4445V12.4L14.5315 8.79999L8.07303 12.4V12.4445L4.47381 10.463V21.7539L14.5315 27.5039L24.5892 21.7539V10.463Z" fill="#27C26F"/>
<path d="M36.7998 22.7354V9.29541H39.3573V20.4314H45.5575V22.7354H36.7998Z" fill="#121722"/>
<path d="M51.0796 23.0042C50.1237 23.0042 49.2648 22.8122 48.5027 22.4281C47.7406 22.0441 47.1399 21.4873 46.7008 20.7578C46.2616 20.0282 46.042 19.1514 46.042 18.1274V17.8201C46.042 16.7961 46.2616 15.9193 46.7008 15.1897C47.1399 14.4602 47.7406 13.9034 48.5027 13.5194C49.2648 13.1353 50.1237 12.9434 51.0796 12.9434C52.0355 12.9434 52.8944 13.1353 53.6565 13.5194C54.4186 13.9034 55.0193 14.4602 55.4584 15.1897C55.8976 15.9193 56.1172 16.7961 56.1172 17.8201V18.1274C56.1172 19.1514 55.8976 20.0282 55.4584 20.7578C55.0193 21.4873 54.4186 22.0441 53.6565 22.4281C52.8944 22.8122 52.0355 23.0042 51.0796 23.0042ZM51.0796 20.8537C51.8288 20.8537 52.4488 20.617 52.9396 20.1433C53.4305 19.657 53.6759 18.9657 53.6759 18.0697V17.8778C53.6759 16.9818 53.4305 16.2969 52.9396 15.8233C52.4617 15.337 51.8417 15.0938 51.0796 15.0938C50.3304 15.0938 49.7104 15.337 49.2196 15.8233C48.7287 16.2969 48.4833 16.9818 48.4833 17.8778V18.0697C48.4833 18.9657 48.7287 19.657 49.2196 20.1433C49.7104 20.617 50.3304 20.8537 51.0796 20.8537Z" fill="#121722"/>
<path d="M57.0332 18.0122V17.705C57.0332 16.7066 57.2334 15.8554 57.6338 15.1513C58.0342 14.4345 58.5639 13.8905 59.2226 13.5194C59.8943 13.1353 60.6241 12.9434 61.412 12.9434C62.2903 12.9434 62.9556 13.097 63.4076 13.4042C63.8598 13.7113 64.1892 14.0314 64.3958 14.3642H64.7446V13.2121H67.1471V24.425C67.1471 25.0778 66.9533 25.5961 66.5658 25.9802C66.1783 26.377 65.6616 26.5754 65.0158 26.5754H58.5832V24.4634H64.1633C64.5249 24.4634 64.7058 24.2714 64.7058 23.8874V21.4105H64.357C64.2278 21.6153 64.047 21.8265 63.8146 22.0441C63.582 22.2489 63.272 22.4217 62.8845 22.5626C62.497 22.7034 62.0061 22.7738 61.412 22.7738C60.6241 22.7738 59.8943 22.5881 59.2226 22.2169C58.5639 21.8329 58.0342 21.2889 57.6338 20.585C57.2334 19.8682 57.0332 19.0106 57.0332 18.0122ZM62.1095 20.6618C62.8587 20.6618 63.4851 20.425 63.9889 19.9514C64.4927 19.4778 64.7446 18.8122 64.7446 17.9546V17.7626C64.7446 16.8921 64.4927 16.2266 63.9889 15.7658C63.498 15.2922 62.8716 15.0554 62.1095 15.0554C61.3603 15.0554 60.7338 15.2922 60.2301 15.7658C59.7264 16.2266 59.4745 16.8921 59.4745 17.7626V17.9546C59.4745 18.8122 59.7264 19.4778 60.2301 19.9514C60.7338 20.425 61.3603 20.6618 62.1095 20.6618Z" fill="#121722"/>
<path d="M73.5551 23.0042C72.5992 23.0042 71.7403 22.8122 70.9782 22.4281C70.2161 22.0441 69.6154 21.4873 69.1763 20.7578C68.7371 20.0282 68.5176 19.1514 68.5176 18.1274V17.8201C68.5176 16.7961 68.7371 15.9193 69.1763 15.1897C69.6154 14.4602 70.2161 13.9034 70.9782 13.5194C71.7403 13.1353 72.5992 12.9434 73.5551 12.9434C74.511 12.9434 75.3699 13.1353 76.132 13.5194C76.8941 13.9034 77.4948 14.4602 77.9339 15.1897C78.3731 15.9193 78.5927 16.7961 78.5927 17.8201V18.1274C78.5927 19.1514 78.3731 20.0282 77.9339 20.7578C77.4948 21.4873 76.8941 22.0441 76.132 22.4281C75.3699 22.8122 74.511 23.0042 73.5551 23.0042ZM73.5551 20.8537C74.3043 20.8537 74.9243 20.617 75.4151 20.1433C75.906 19.657 76.1514 18.9657 76.1514 18.0697V17.8778C76.1514 16.9818 75.906 16.2969 75.4151 15.8233C74.9372 15.337 74.3172 15.0938 73.5551 15.0938C72.8059 15.0938 72.186 15.337 71.6951 15.8233C71.2043 16.2969 70.9588 16.9818 70.9588 17.8778V18.0697C70.9588 18.9657 71.2043 19.657 71.6951 20.1433C72.186 20.617 72.8059 20.8537 73.5551 20.8537Z" fill="#121722"/>
<path d="M79.9737 22.7352V13.212H82.415V22.7352H79.9737ZM81.1943 12.0984C80.7552 12.0984 80.3806 11.9576 80.0706 11.676C79.7735 11.3944 79.625 11.0231 79.625 10.5624C79.625 10.1016 79.7735 9.7304 80.0706 9.44877C80.3806 9.16722 80.7552 9.02637 81.1943 9.02637C81.6465 9.02637 82.0211 9.16722 82.3182 9.44877C82.6152 9.7304 82.7637 10.1016 82.7637 10.5624C82.7637 11.0231 82.6152 11.3944 82.3182 11.676C82.0211 11.9576 81.6465 12.0984 81.1943 12.0984Z" fill="#121722"/>
<path d="M84.249 26.5754V13.2121H86.6517V14.3642H87.0006C87.2198 13.993 87.5618 13.6666 88.0276 13.3849C88.4925 13.0905 89.1577 12.9434 90.0231 12.9434C90.7983 12.9434 91.515 13.1353 92.1733 13.5194C92.8324 13.8905 93.3618 14.4409 93.7623 15.1706C94.1628 15.9002 94.363 16.7834 94.363 17.8201V18.1274C94.363 19.1641 94.1628 20.0474 93.7623 20.7769C93.3618 21.5066 92.8324 22.0634 92.1733 22.4474C91.515 22.8186 90.7983 23.0042 90.0231 23.0042C89.4413 23.0042 88.9506 22.9337 88.5501 22.793C88.1625 22.665 87.8463 22.4986 87.6013 22.2937C87.3684 22.0762 87.1811 21.8586 87.0393 21.641H86.6904V26.5754H84.249ZM89.2866 20.8922C90.0489 20.8922 90.6754 20.6553 91.1661 20.1817C91.6697 19.6954 91.9215 18.9914 91.9215 18.0697V17.8778C91.9215 16.9562 91.6697 16.2585 91.1661 15.7849C90.6625 15.2986 90.036 15.0554 89.2866 15.0554C88.5372 15.0554 87.9107 15.2986 87.4071 15.7849C86.9035 16.2585 86.6517 16.9562 86.6517 17.8778V18.0697C86.6517 18.9914 86.9035 19.6954 87.4071 20.1817C87.9107 20.6553 88.5372 20.8922 89.2866 20.8922Z" fill="#121722"/>
<path d="M99.7236 23.0042C98.4706 23.0042 97.4436 22.7354 96.6427 22.1978C95.8426 21.6601 95.3579 20.8922 95.1895 19.8937L97.4376 19.3178C97.5279 19.7657 97.6765 20.1178 97.8828 20.3738C98.1028 20.6298 98.3675 20.8153 98.6777 20.9306C99 21.0329 99.3489 21.0842 99.7236 21.0842C100.292 21.0842 100.712 20.9881 100.983 20.7962C101.254 20.5914 101.39 20.3418 101.39 20.0474C101.39 19.753 101.261 19.529 101.002 19.3753C100.745 19.2089 100.331 19.0746 99.7623 18.9722L99.22 18.8761C98.5479 18.7481 97.9343 18.5753 97.3792 18.3578C96.824 18.1274 96.378 17.8137 96.042 17.417C95.7068 17.0201 95.5384 16.5081 95.5384 15.8809C95.5384 14.9338 95.8873 14.2106 96.5851 13.7113C97.2821 13.1994 98.1999 12.9434 99.336 12.9434C100.409 12.9434 101.3 13.1802 102.01 13.6538C102.72 14.1274 103.185 14.7482 103.405 15.5162L101.138 16.2073C101.035 15.721 100.822 15.3753 100.499 15.1706C100.189 14.9658 99.8009 14.8633 99.336 14.8633C98.8711 14.8633 98.5161 14.9465 98.2704 15.1129C98.0254 15.2666 97.9025 15.4842 97.9025 15.7658C97.9025 16.073 98.0315 16.3033 98.2901 16.4569C98.5479 16.5977 98.8969 16.7066 99.336 16.7834L99.8783 16.8794C100.602 17.0073 101.254 17.1801 101.836 17.3977C102.43 17.6025 102.895 17.9033 103.231 18.3002C103.58 18.6842 103.754 19.2089 103.754 19.8746C103.754 20.873 103.385 21.6474 102.649 22.1978C101.926 22.7354 100.951 23.0042 99.7236 23.0042Z" fill="#121722"/>
<path d="M108.683 22.8892C107.934 22.8892 107.275 22.7228 106.707 22.3901C106.152 22.0444 105.719 21.5708 105.408 20.9692C105.099 20.3677 104.943 19.6764 104.943 18.8956V13.2124H107.385V18.7036C107.385 19.4204 107.559 19.958 107.908 20.3164C108.269 20.6748 108.78 20.854 109.439 20.854C110.187 20.854 110.769 20.6108 111.183 20.1244C111.596 19.6252 111.802 18.9341 111.802 18.0508V13.2124H114.244V22.7357H111.841V21.4876H111.493C111.337 21.8077 111.047 22.1212 110.62 22.4284C110.194 22.7357 109.548 22.8892 108.683 22.8892Z" fill="#121722"/>
<path d="M116.089 22.7354V13.2121H118.491V14.249H118.84C119.007 13.9289 119.286 13.6538 119.673 13.4233C120.06 13.1802 120.571 13.0586 121.204 13.0586C121.888 13.0586 122.437 13.193 122.851 13.4617C123.264 13.7177 123.58 14.0569 123.8 14.4793H124.148C124.368 14.0698 124.678 13.7306 125.079 13.4617C125.479 13.193 126.047 13.0586 126.784 13.0586C127.378 13.0586 127.914 13.1866 128.392 13.4426C128.883 13.6857 129.27 14.0633 129.555 14.5754C129.851 15.0745 130 15.7081 130 16.4762V22.7354H127.558V16.649C127.558 16.1241 127.423 15.7338 127.152 15.4778C126.88 15.209 126.5 15.0745 126.009 15.0745C125.454 15.0745 125.021 15.2538 124.71 15.6122C124.414 15.9577 124.265 16.457 124.265 17.1098V22.7354H121.824V16.649C121.824 16.1241 121.688 15.7338 121.417 15.4778C121.146 15.209 120.765 15.0745 120.273 15.0745C119.718 15.0745 119.286 15.2538 118.976 15.6122C118.678 15.9577 118.53 16.457 118.53 17.1098V22.7354H116.089Z" fill="#121722"/>
</svg>
