<svg width="134" height="32" viewBox="0 0 134 32" fill="none" xmlns="http://www.w3.org/2000/svg">
<path d="M15.9482 0C13.8539 0 11.78 0.413897 9.84504 1.21792C7.91011 2.02203 6.15208 3.20055 4.67108 4.68626C3.19018 6.17207 2.01548 7.93581 1.21398 9.87703C0.412556 11.8182 0 13.8989 0 16C0 18.1011 0.412556 20.1818 1.21398 22.123C2.01548 24.0642 3.19018 25.8279 4.67108 27.3137C6.15208 28.7994 7.91011 29.978 9.84504 30.7821C11.78 31.5861 13.8539 32 15.9482 32V24C14.901 24 13.8641 23.7931 12.8966 23.391C11.9291 22.989 11.0501 22.3997 10.3096 21.6569C9.56918 20.914 8.98183 20.0321 8.58112 19.0615C8.18032 18.0909 7.97409 17.0506 7.97409 16C7.97409 14.9494 8.18032 13.9091 8.58112 12.9385C8.98183 11.9679 9.56918 11.086 10.3096 10.3431C11.0501 9.60027 11.9291 9.01101 12.8966 8.609C13.8641 8.2069 14.901 8 15.9482 8V0Z" fill="#404EED"/>
<path d="M15.9488 21.3336C18.8849 21.3336 21.2649 18.9458 21.2649 16.0003C21.2649 13.0547 18.8849 10.667 15.9488 10.667C13.0128 10.667 10.6328 13.0547 10.6328 16.0003C10.6328 18.9458 13.0128 21.3336 15.9488 21.3336Z" fill="#404EED"/>
<path d="M0 16C0 18.1011 0.412556 20.1818 1.21398 22.123C2.01548 24.0642 3.19018 25.8279 4.67108 27.3137C6.15208 28.7994 7.91011 29.978 9.84504 30.7821C11.78 31.5861 13.8539 32 15.9482 32C18.0425 32 20.1164 31.5861 22.0513 30.7821C23.9862 29.978 25.7443 28.7994 27.2253 27.3137C28.7062 25.8279 29.8809 24.0642 30.6824 22.123C31.4838 20.1818 31.8964 18.1011 31.8964 16H23.9223C23.9223 17.0506 23.716 18.0909 23.3152 19.0615C22.9145 20.0321 22.3272 20.914 21.5867 21.6569C20.8463 22.3997 19.9672 22.989 18.9997 23.391C18.0323 23.7931 16.9954 24 15.9482 24C14.901 24 13.8641 23.7931 12.8966 23.391C11.9291 22.989 11.0501 22.3997 10.3096 21.6569C9.56918 20.914 8.98183 20.0321 8.58112 19.0615C8.18032 18.0909 7.97409 17.0506 7.97409 16H0Z" fill="#1FB4FF"/>
<path d="M21.264 15.9999C21.264 14.5854 20.7039 13.2289 19.707 12.2287C18.71 11.2284 17.3579 10.6665 15.948 10.6665C14.538 10.6665 13.1859 11.2284 12.1889 12.2287C11.1919 13.2289 10.6318 14.5854 10.6318 15.9999H15.948H21.264Z" fill="#1FB4FF"/>
<path d="M45.1446 7.59479H42.6875V21.2896H45.1446V7.59479Z" fill="#404EED"/>
<path d="M46.749 16.4373C46.749 19.6067 48.9331 21.5631 51.8192 21.5631C54.7053 21.5631 56.8894 19.6067 56.8894 16.4373C56.8894 13.2679 54.7053 11.3115 51.8192 11.3115C48.9331 11.3115 46.749 13.2679 46.749 16.4373ZM49.2061 16.4373C49.2061 14.5591 50.2981 13.4636 51.8192 13.4636C53.3402 13.4636 54.4323 14.5591 54.4323 16.4373C54.4323 18.3154 53.3402 19.411 51.8192 19.411C50.2981 19.411 49.2061 18.3154 49.2061 16.4373Z" fill="#404EED"/>
<path d="M65.6695 11.5854V12.8962H65.4745C64.8894 12.055 63.9534 11.3115 62.2763 11.3115C59.9753 11.3115 57.9082 13.2679 57.9082 16.2808C57.9082 19.2936 59.9753 21.25 62.2763 21.25C63.9534 21.25 64.8894 20.487 65.4355 19.7241H65.6305V20.6631C65.6305 22.5413 64.5384 23.4021 62.9394 23.4021C61.3403 23.4021 60.5213 22.5413 60.1897 21.4261L57.9862 22.3848C58.4932 23.852 59.9753 25.4759 62.9784 25.4759C66.0595 25.4759 68.0875 23.852 68.0875 20.7218V11.5854H65.6695ZM63.0174 19.1371C61.4963 19.1371 60.3653 18.0415 60.3653 16.2808C60.3653 14.52 61.4963 13.4244 63.0174 13.4244C64.5384 13.4244 65.6695 14.52 65.6695 16.2808C65.6695 18.0415 64.5384 19.1371 63.0174 19.1371Z" fill="#404EED"/>
<path d="M69.6777 16.4373C69.6777 19.6067 71.8618 21.5631 74.7479 21.5631C77.634 21.5631 79.818 19.6067 79.818 16.4373C79.818 13.2679 77.634 11.3115 74.7479 11.3115C71.8618 11.3115 69.6777 13.2679 69.6777 16.4373ZM72.1348 16.4373C72.1348 14.5591 73.2269 13.4636 74.7479 13.4636C76.269 13.4636 77.361 14.5591 77.361 16.4373C77.361 18.3154 76.269 19.411 74.7479 19.411C73.2269 19.411 72.1348 18.3154 72.1348 16.4373Z" fill="#404EED"/>
<path d="M81.7461 8.76844C81.7461 9.76626 82.5069 10.4509 83.4825 10.4509C84.457 10.4509 85.2178 9.76626 85.2178 8.76844C85.2178 7.77074 84.457 7.08594 83.4825 7.08594C82.5069 7.08594 81.7461 7.77074 81.7461 8.76844ZM84.7102 11.5857H82.2537V21.2894H84.7102V11.5857Z" fill="#1FB4FF"/>
<path d="M86.8994 25.202H89.3571V20.0371H89.5515C90.0975 20.8196 91.0336 21.5631 92.7112 21.5631C95.0117 21.5631 97.0793 19.6067 97.0793 16.4373C97.0793 13.2679 95.0117 11.3115 92.7112 11.3115C91.0336 11.3115 90.0975 12.055 89.5131 12.8963H89.3175V11.5854H86.8994V25.202ZM91.9696 19.4502C90.4491 19.4502 89.3175 18.3546 89.3175 16.4373C89.3175 14.52 90.4491 13.4244 91.9696 13.4244C93.4912 13.4244 94.6217 14.52 94.6217 16.4373C94.6217 18.3546 93.4912 19.4502 91.9696 19.4502Z" fill="#1FB4FF"/>
<path d="M98.5137 14.3049C98.5137 16.2221 100.112 16.9265 102.14 17.3177L102.648 17.4155C103.856 17.6503 104.402 17.9438 104.402 18.5698C104.402 19.1959 103.856 19.6849 102.726 19.6849C101.594 19.6849 100.679 19.2154 100.424 17.8068L98.1621 18.3937C98.4945 20.4284 100.19 21.5631 102.726 21.5631C105.182 21.5631 106.782 20.4088 106.782 18.3742C106.782 16.3394 105.144 15.7917 102.96 15.3613L102.452 15.2635C101.438 15.0678 100.892 14.7939 100.892 14.1484C100.892 13.5614 101.4 13.1897 102.336 13.1897C103.272 13.1897 103.934 13.5809 104.168 14.6374L106.392 13.9527C105.924 12.3876 104.501 11.3115 102.336 11.3115C100.034 11.3115 98.5137 12.3876 98.5137 14.3049Z" fill="#1FB4FF"/>
<path d="M117.819 21.2892V11.5854H115.363V16.5938C115.363 18.3937 114.486 19.4502 112.983 19.4502C111.657 19.4502 110.917 18.7264 110.917 17.259V11.5854H108.459V17.3764C108.459 19.7828 109.961 21.4457 112.223 21.4457C113.997 21.4457 114.817 20.6631 115.207 19.8415H115.401V21.2892H117.819Z" fill="#1FB4FF"/>
<path d="M119.998 11.5857V21.2895H122.456V15.4985C122.456 14.1682 123.08 13.4247 124.21 13.4247C125.186 13.4247 125.77 13.9725 125.77 15.029V21.2895H128.228V15.4985C128.228 14.1682 128.852 13.4247 129.982 13.4247C130.958 13.4247 131.542 13.9725 131.542 15.029V21.2895H134V14.9116C134 12.5639 132.556 11.4292 130.762 11.4292C129.183 11.4292 128.462 12.1335 127.994 12.9552H127.798C127.35 12.0357 126.55 11.4292 125.146 11.4292C123.742 11.4292 122.981 12.0552 122.612 12.7987H122.416V11.5857H119.998Z" fill="#1FB4FF"/>
</svg>
