<svg width="64" height="64" viewBox="0 0 64 64" fill="none" xmlns="http://www.w3.org/2000/svg">
<path d="M46.8273 47.9202H17.174C6.56065 47.9202 3.33398 44.6935 3.33398 34.0802V17.1735C3.33398 6.56016 6.56065 3.3335 17.174 3.3335H46.8006C57.414 3.3335 60.6406 6.56016 60.6406 17.1735V34.0535C60.6673 44.6935 57.4406 47.9202 46.8273 47.9202ZM17.174 7.3335C8.80065 7.3335 7.33398 8.80016 7.33398 17.1735V34.0535C7.33398 42.4268 8.80065 43.8935 17.174 43.8935H46.8006C55.174 43.8935 56.6406 42.4268 56.6406 34.0535V17.1735C56.6406 8.80016 55.174 7.3335 46.8006 7.3335H17.174Z" fill="#404EED"/>
<path d="M32 60.6671C30.9067 60.6671 30 59.7604 30 58.6671V45.9204C30 44.8271 30.9067 43.9204 32 43.9204C33.0933 43.9204 34 44.8271 34 45.9204V58.6671C34 59.7604 33.0933 60.6671 32 60.6671Z" fill="#404EED"/>
<path d="M58.6673 36.6665H5.33398C4.24065 36.6665 3.33398 35.7598 3.33398 34.6665C3.33398 33.5732 4.24065 32.6665 5.33398 32.6665H58.6673C59.7606 32.6665 60.6673 33.5732 60.6673 34.6665C60.6673 35.7598 59.7606 36.6665 58.6673 36.6665Z" fill="#404EED"/>
<path d="M44 60.6665H20C18.9067 60.6665 18 59.7598 18 58.6665C18 57.5732 18.9067 56.6665 20 56.6665H44C45.0933 56.6665 46 57.5732 46 58.6665C46 59.7598 45.0933 60.6665 44 60.6665Z" fill="#404EED"/>
</svg>
