<svg width="40" height="40" viewBox="0 0 40 40" fill="none" xmlns="http://www.w3.org/2000/svg">
<path d="M12.9997 35.7831H7.63304C4.58304 35.7831 2.08301 33.2997 2.08301 30.2331V20.5664C2.08301 19.8831 2.64967 19.3164 3.33301 19.3164H12.9997C16.1663 19.3164 18.5497 21.6997 18.5497 24.8664V30.2331C18.533 33.3997 16.1497 35.7831 12.9997 35.7831ZM4.58301 21.8331V30.2497C4.58301 31.9331 5.94971 33.2997 7.63304 33.2997H12.9997C14.7663 33.2997 16.0497 32.0164 16.0497 30.2497V24.8831C16.0497 23.1164 14.7663 21.8331 12.9997 21.8331H4.58301Z" fill="white"/>
<path d="M3.33301 21.8332C2.64967 21.8332 2.08301 21.2665 2.08301 20.5832C2.08301 10.1665 4.19971 7.98322 10.2497 4.39989C10.8497 4.04989 11.6163 4.24991 11.9663 4.83324C12.3163 5.43324 12.1163 6.19986 11.533 6.54986C6.13297 9.74984 4.58301 11.0832 4.58301 20.5832C4.58301 21.2665 4.01634 21.8332 3.33301 21.8332Z" fill="white"/>
<path d="M32.3688 35.7831H27.0021C23.9521 35.7831 21.4521 33.2997 21.4521 30.2331V20.5664C21.4521 19.8831 22.0188 19.3164 22.7021 19.3164H32.3688C35.5355 19.3164 37.9188 21.6997 37.9188 24.8664V30.2331C37.9188 33.3997 35.5355 35.7831 32.3688 35.7831ZM23.9688 21.8331V30.2497C23.9688 31.9331 25.3355 33.2997 27.0188 33.2997H32.3855C34.1521 33.2997 35.4355 32.0164 35.4355 30.2497V24.8831C35.4355 23.1164 34.1521 21.8331 32.3855 21.8331H23.9688Z" fill="white"/>
<path d="M22.7148 21.8329C22.0315 21.8329 21.4648 21.2662 21.4648 20.5829C21.4648 10.1662 23.5815 7.98298 29.6315 4.39965C30.2315 4.04965 30.9982 4.24966 31.3482 4.833C31.6982 5.433 31.4982 6.19961 30.9148 6.54961C25.5148 9.7496 23.9648 11.0829 23.9648 20.5829C23.9648 21.2662 23.3982 21.8329 22.7148 21.8329Z" fill="white"/>
</svg>
