<svg width="64" height="64" viewBox="0 0 64 64" fill="none" xmlns="http://www.w3.org/2000/svg">
<path d="M50.667 60.6663C49.5737 60.6663 48.667 59.7597 48.667 58.6663V29.333C48.667 28.2397 49.5737 27.333 50.667 27.333C51.7603 27.333 52.667 28.2397 52.667 29.333V58.6663C52.667 59.7597 51.7603 60.6663 50.667 60.6663Z" fill="#FFC933"/>
<path d="M50.667 20.6663C49.5737 20.6663 48.667 19.7597 48.667 18.6663V5.33301C48.667 4.23967 49.5737 3.33301 50.667 3.33301C51.7603 3.33301 52.667 4.23967 52.667 5.33301V18.6663C52.667 19.7597 51.7603 20.6663 50.667 20.6663Z" fill="#FFC933"/>
<path d="M32 60.6663C30.9067 60.6663 30 59.7597 30 58.6663V45.333C30 44.2397 30.9067 43.333 32 43.333C33.0933 43.333 34 44.2397 34 45.333V58.6663C34 59.7597 33.0933 60.6663 32 60.6663Z" fill="#FFC933"/>
<path d="M32 36.6663C30.9067 36.6663 30 35.7597 30 34.6663V5.33301C30 4.23967 30.9067 3.33301 32 3.33301C33.0933 3.33301 34 4.23967 34 5.33301V34.6663C34 35.7597 33.0933 36.6663 32 36.6663Z" fill="#FFC933"/>
<path d="M13.333 60.6663C12.2397 60.6663 11.333 59.7597 11.333 58.6663V29.333C11.333 28.2397 12.2397 27.333 13.333 27.333C14.4263 27.333 15.333 28.2397 15.333 29.333V58.6663C15.333 59.7597 14.4263 60.6663 13.333 60.6663Z" fill="#FFC933"/>
<path d="M13.333 20.6663C12.2397 20.6663 11.333 19.7597 11.333 18.6663V5.33301C11.333 4.23967 12.2397 3.33301 13.333 3.33301C14.4263 3.33301 15.333 4.23967 15.333 5.33301V18.6663C15.333 19.7597 14.4263 20.6663 13.333 20.6663Z" fill="#FFC933"/>
<path d="M18.6667 31.333H8C6.90667 31.333 6 30.4263 6 29.333C6 28.2397 6.90667 27.333 8 27.333H18.6667C19.76 27.333 20.6667 28.2397 20.6667 29.333C20.6667 30.4263 19.76 31.333 18.6667 31.333Z" fill="#FFC933"/>
<path d="M55.9997 31.333H45.333C44.2397 31.333 43.333 30.4263 43.333 29.333C43.333 28.2397 44.2397 27.333 45.333 27.333H55.9997C57.093 27.333 57.9997 28.2397 57.9997 29.333C57.9997 30.4263 57.093 31.333 55.9997 31.333Z" fill="#FFC933"/>
<path d="M37.3337 36.667H26.667C25.5737 36.667 24.667 35.7603 24.667 34.667C24.667 33.5737 25.5737 32.667 26.667 32.667H37.3337C38.427 32.667 39.3337 33.5737 39.3337 34.667C39.3337 35.7603 38.427 36.667 37.3337 36.667Z" fill="#FFC933"/>
</svg>
