<svg width="64" height="64" viewBox="0 0 64 64" fill="none" xmlns="http://www.w3.org/2000/svg">
<path d="M32 36.6663C30.9067 36.6663 30 35.7597 30 34.6663V21.333C30 20.2397 30.9067 19.333 32 19.333C33.0933 19.333 34 20.2397 34 21.333V34.6663C34 35.7597 33.0933 36.6663 32 36.6663Z" fill="#FFC933"/>
<path d="M32.0003 60.6667C18.027 60.6667 6.66699 49.3067 6.66699 35.3333C6.66699 21.36 18.027 10 32.0003 10C45.9737 10 57.3337 21.36 57.3337 35.3333C57.3337 36.4267 56.427 37.3333 55.3337 37.3333C54.2403 37.3333 53.3337 36.4267 53.3337 35.3333C53.3337 23.5733 43.7603 14 32.0003 14C20.2403 14 10.667 23.5733 10.667 35.3333C10.667 47.0933 20.2403 56.6667 32.0003 56.6667C33.0937 56.6667 34.0003 57.5733 34.0003 58.6667C34.0003 59.76 33.0937 60.6667 32.0003 60.6667Z" fill="#FFC933"/>
<path d="M40 7.33301H24C22.9067 7.33301 22 6.42634 22 5.33301C22 4.23967 22.9067 3.33301 24 3.33301H40C41.0933 3.33301 42 4.23967 42 5.33301C42 6.42634 41.0933 7.33301 40 7.33301Z" fill="#FFC933"/>
<path d="M43.0677 58.72C42.1344 58.72 41.281 58.5066 40.5077 58.0533C38.7477 57.04 37.7344 54.9866 37.7344 52.4266V46.2666C37.7344 43.7066 38.7477 41.6533 40.5077 40.64C42.2677 39.6266 44.5344 39.7866 46.7477 41.04L52.081 44.1333C54.2944 45.4133 55.5744 47.3066 55.5744 49.3333C55.5744 51.36 54.2944 53.2533 52.081 54.5333L46.7477 57.6266C45.521 58.3466 44.2677 58.72 43.0677 58.72ZM43.0944 43.9466C42.881 43.9466 42.6677 44 42.5077 44.08C42.0277 44.3466 41.7344 45.1733 41.7344 46.24V52.4C41.7344 53.4666 42.0277 54.2933 42.5077 54.56C42.9877 54.8266 43.841 54.6933 44.7477 54.16L50.081 51.0666C51.0144 50.5333 51.5744 49.8666 51.5744 49.3333C51.5744 48.8 51.0144 48.1333 50.081 47.6L44.7477 44.5066C44.1344 44.1333 43.5477 43.9466 43.0944 43.9466Z" fill="#FFC933"/>
</svg>
