<svg width="64" height="64" viewBox="0 0 64 64" fill="none" xmlns="http://www.w3.org/2000/svg">
<path d="M43.1208 28.826H20.8806C18.5873 28.826 16.8273 27.9193 16.0273 26.3728C15.2273 24.7994 15.5473 22.8527 16.8806 21.0127L28.0005 5.43944C29.9739 2.61276 34.0539 2.61277 36.0539 5.4661L47.1739 21.0127C48.5072 22.8527 48.8272 24.7994 48.0272 26.3728C47.1739 27.9193 45.4141 28.826 43.1208 28.826ZM32.0005 7.19941C31.7605 7.19941 31.4939 7.41277 31.2539 7.73277L20.1339 23.3328C19.6006 24.0528 19.574 24.4794 19.6006 24.5594C19.6273 24.6128 20.0006 24.8261 20.9073 24.8261H43.1472C44.0272 24.8261 44.4008 24.5861 44.4541 24.5327C44.4541 24.4794 44.4272 24.0528 43.9205 23.3328L32.8005 7.75944C32.5072 7.3861 32.2405 7.19941 32.0005 7.19941Z" fill="#404EED"/>
<path d="M46.9052 50.0001H17.1185C13.3052 50.0001 11.7851 48.1601 11.2251 47.0668C10.6651 45.9734 10.0784 43.6801 12.3184 40.5868L22.9584 25.6533C23.3317 25.12 23.9451 24.8267 24.5851 24.8267H39.4385C40.0785 24.8267 40.6919 25.1467 41.0652 25.6533L51.7052 40.6134C53.9452 43.6801 53.3319 45.9734 52.7719 47.0668C52.2119 48.1601 50.7185 50.0001 46.9052 50.0001ZM25.5985 28.8268L15.5451 42.9334C14.6917 44.1068 14.6118 44.9068 14.7718 45.2534C14.9585 45.6001 15.6518 46.0001 17.0918 46.0001H46.8785C48.3185 46.0001 49.0385 45.6001 49.1985 45.2534C49.3852 44.9068 49.2785 44.1068 48.4252 42.9334L38.3719 28.8001H25.5985V28.8268Z" fill="#404EED"/>
<path d="M32 60.6667C30.9067 60.6667 30 59.76 30 58.6667V48C30 46.9067 30.9067 46 32 46C33.0933 46 34 46.9067 34 48V58.6667C34 59.76 33.0933 60.6667 32 60.6667Z" fill="#404EED"/>
</svg>
