<svg width="64" height="64" viewBox="0 0 64 64" fill="none" xmlns="http://www.w3.org/2000/svg">
<path d="M31.9999 60.6669C30.2132 60.6669 28.3999 60.2136 26.7999 59.2803L10.9598 50.1336C7.75976 48.2669 5.75977 44.8269 5.75977 41.1203V22.8803C5.75977 19.1736 7.75976 15.7336 10.9598 13.867L26.7999 4.72031C29.9999 2.85365 33.9732 2.85365 37.1999 4.72031L53.0399 13.867C56.2399 15.7336 58.2399 19.1736 58.2399 22.8803V41.1203C58.2399 44.8269 56.2399 48.2669 53.0399 50.1336L37.1999 59.2803C35.5999 60.2136 33.7865 60.6669 31.9999 60.6669ZM31.9999 7.33359C30.9065 7.33359 29.7865 7.62693 28.7999 8.18693L12.9598 17.3336C10.9864 18.4803 9.75977 20.587 9.75977 22.8803V41.1203C9.75977 43.3869 10.9864 45.5203 12.9598 46.6669L28.7999 55.8136C30.7732 56.9603 33.2265 56.9603 35.1999 55.8136L51.0399 46.6669C53.0132 45.5203 54.2399 43.4136 54.2399 41.1203V22.8803C54.2399 20.6136 53.0132 18.4803 51.0399 17.3336L35.1999 8.18693C34.2132 7.62693 33.0932 7.33359 31.9999 7.33359Z" fill="#FF4748"/>
<path d="M32.0004 31.3328C27.4671 31.3328 23.7871 27.6528 23.7871 23.1195C23.7871 18.5861 27.4671 14.9062 32.0004 14.9062C36.5337 14.9062 40.2137 18.5861 40.2137 23.1195C40.2137 27.6528 36.5337 31.3328 32.0004 31.3328ZM32.0004 18.9062C29.6804 18.9062 27.7871 20.7995 27.7871 23.1195C27.7871 25.4395 29.6804 27.3328 32.0004 27.3328C34.3204 27.3328 36.2137 25.4395 36.2137 23.1195C36.2137 20.7995 34.3204 18.9062 32.0004 18.9062Z" fill="#FF4748"/>
<path d="M42.6673 46.4274C41.574 46.4274 40.6673 45.5208 40.6673 44.4274C40.6673 40.7474 36.774 37.7344 32.0007 37.7344C27.2273 37.7344 23.334 40.7474 23.334 44.4274C23.334 45.5208 22.4273 46.4274 21.334 46.4274C20.2407 46.4274 19.334 45.5208 19.334 44.4274C19.334 38.5341 25.014 33.7344 32.0007 33.7344C38.9873 33.7344 44.6673 38.5341 44.6673 44.4274C44.6673 45.5208 43.7607 46.4274 42.6673 46.4274Z" fill="#FF4748"/>
</svg>
